<svg width="223" height="47" viewBox="0 0 223 47" fill="none" xmlns="http://www.w3.org/2000/svg">
<mask id="mask0_5110_778" style="mask-type:alpha" maskUnits="userSpaceOnUse" x="6" y="0" width="217" height="47">
<path d="M207.953 45.6V28.896H192.401V45.6H178.257V1.56799H192.401V17.632H207.953V1.56799H222.097V45.6H207.953Z" fill="#F39200"/>
<path d="M164.349 45.6L162.493 39.392H147.069L145.213 45.6H130.749L146.813 1.56799H163.261L179.325 45.6H164.349ZM150.013 29.536H159.549L154.941 13.856H154.685L150.013 29.536Z" fill="#F39200"/>
<path d="M133.224 15.072C133.224 17.76 132.499 20.192 131.048 22.368C129.597 24.544 127.485 26.144 124.712 27.168L134.504 45.6H118.632L110.824 29.536H105.576V45.6H91.4321V1.56799H118.376C121.533 1.56799 124.221 2.18666 126.44 3.42399C128.701 4.61866 130.387 6.26133 131.496 8.35199C132.648 10.4 133.224 12.64 133.224 15.072ZM118.824 15.648C118.824 14.496 118.44 13.536 117.672 12.768C116.904 12 115.965 11.616 114.856 11.616H105.576V19.744H114.856C115.965 19.744 116.904 19.36 117.672 18.592C118.44 17.7813 118.824 16.8 118.824 15.648Z" fill="#F39200"/>
<path d="M77.5236 45.6L75.6676 39.392H60.2436L58.3876 45.6H43.9236L59.9876 1.56799H76.4356L92.4996 45.6H77.5236ZM63.1876 29.536H72.7236L68.1156 13.856H67.8596L63.1876 29.536Z" fill="#F39200"/>
<path d="M26.728 0.799988C32.36 0.799988 36.9894 1.95199 40.6161 4.25599C44.2427 6.51732 46.0987 9.88799 46.1841 14.368V15.136H32.936V14.88C32.936 13.6 32.4667 12.5333 31.528 11.68C30.5894 10.8267 29.16 10.4 27.24 10.4C25.3627 10.4 23.912 10.6773 22.888 11.232C21.9067 11.7867 21.416 12.4693 21.416 13.28C21.416 14.432 22.0987 15.2853 23.464 15.84C24.8294 16.3947 27.0267 16.9707 30.056 17.568C33.5974 18.2933 36.4987 19.0613 38.76 19.872C41.064 20.64 43.0694 21.92 44.7761 23.712C46.4827 25.504 47.3574 27.936 47.4001 31.008C47.4001 36.2133 45.6294 40.0747 42.0881 42.592C38.5894 45.1093 33.896 46.368 28.008 46.368C21.1387 46.368 15.784 45.216 11.944 42.912C8.14671 40.608 6.24805 36.5333 6.24805 30.688H19.624C19.624 32.9067 20.2 34.4 21.352 35.168C22.504 35.8933 24.296 36.256 26.728 36.256C28.52 36.256 29.992 36.064 31.144 35.68C32.3387 35.296 32.936 34.5067 32.936 33.312C32.936 32.2453 32.2747 31.456 30.952 30.944C29.672 30.3893 27.56 29.8133 24.616 29.216C21.032 28.448 18.0667 27.6587 15.72 26.848C13.3734 25.9947 11.3254 24.608 9.57605 22.688C7.82671 20.768 6.95205 18.1653 6.95205 14.88C6.95205 10.0587 8.80805 6.51732 12.52 4.25599C16.2747 1.95199 21.0107 0.799988 26.728 0.799988Z" fill="#F39200"/>
</mask>
<g mask="url(#mask0_5110_778)">
<path d="M178.496 1.59998H252.496V2.59998H178.496V1.59998Z" fill="#F39200"/>
<path d="M178.496 3.59998H252.496V4.59998H178.496V3.59998Z" fill="#F39200"/>
<path d="M178.496 5.59998H252.496V6.59998H178.496V5.59998Z" fill="#F39200"/>
<path d="M178.496 7.59998H252.496V8.59998H178.496V7.59998Z" fill="#F39200"/>
<path d="M178.496 9.59998H252.496V10.6H178.496V9.59998Z" fill="#F39200"/>
<path d="M178.496 11.6H252.496V12.6H178.496V11.6Z" fill="#F39200"/>
<path d="M178.496 13.6H252.496V14.6H178.496V13.6Z" fill="#F39200"/>
<path d="M178.496 15.6H252.496V16.6H178.496V15.6Z" fill="#F39200"/>
<path d="M178.496 17.6H252.496V18.6H178.496V17.6Z" fill="#F39200"/>
<path d="M178.496 19.6H252.496V20.6H178.496V19.6Z" fill="#F39200"/>
<path d="M178.496 21.6H252.496V22.6H178.496V21.6Z" fill="#F39200"/>
<path d="M178.496 23.6H252.496V24.6H178.496V23.6Z" fill="#F39200"/>
<path d="M178.496 25.6H252.496V26.6H178.496V25.6Z" fill="#F39200"/>
<path d="M178.496 27.6H252.496V28.6H178.496V27.6Z" fill="#F39200"/>
<path d="M178.496 29.6H252.496V30.6H178.496V29.6Z" fill="#F39200"/>
<path d="M178.496 31.6H252.496V32.6H178.496V31.6Z" fill="#F39200"/>
<path d="M178.496 33.6H252.496V34.6H178.496V33.6Z" fill="#F39200"/>
<path d="M178.496 35.6H252.496V36.6H178.496V35.6Z" fill="#F39200"/>
<path d="M178.496 37.6H252.496V38.6H178.496V37.6Z" fill="#F39200"/>
<path d="M178.496 39.6H252.496V40.6H178.496V39.6Z" fill="#F39200"/>
<path d="M178.496 41.6H252.496V42.6H178.496V41.6Z" fill="#F39200"/>
<path d="M178.496 43.6H252.496V44.6H178.496V43.6Z" fill="#F39200"/>
<path d="M178.496 45.6H252.496V46.6H178.496V45.6Z" fill="#F39200"/>
</g>
<path d="M161.941 44.8L160.085 38.592H144.661L142.805 44.8H128.341L144.405 0.768005H160.853L176.917 44.8H161.941ZM147.605 28.736H157.141L152.533 13.056H152.277L147.605 28.736Z" fill="#F39200"/>
<path d="M129.536 14.272C129.536 16.96 128.811 19.392 127.36 21.568C125.909 23.744 123.797 25.344 121.024 26.368L130.816 44.8H114.944L107.136 28.736H101.888V44.8H87.7441V0.768005H114.688C117.845 0.768005 120.533 1.38667 122.752 2.624C125.013 3.81867 126.699 5.46134 127.808 7.55201C128.96 9.6 129.536 11.84 129.536 14.272ZM115.136 14.848C115.136 13.696 114.752 12.736 113.984 11.968C113.216 11.2 112.277 10.816 111.168 10.816H101.888V18.944H111.168C112.277 18.944 113.216 18.56 113.984 17.792C114.752 16.9813 115.136 16 115.136 14.848Z" fill="#F39200"/>
<path d="M72.5556 44.8L70.6996 38.592H55.2756L53.4196 44.8H38.9556L55.0196 0.768005H71.4676L87.5316 44.8H72.5556ZM58.2196 28.736H67.7556L63.1476 13.056H62.8916L58.2196 28.736Z" fill="#F39200"/>
<path d="M20.48 0C26.112 0 30.7413 1.152 34.368 3.456C37.9947 5.71733 39.8507 9.088 39.936 13.568V14.336H26.688V14.08C26.688 12.8 26.2187 11.7333 25.28 10.88C24.3413 10.0267 22.912 9.6 20.992 9.6C19.1147 9.6 17.664 9.87734 16.64 10.432C15.6587 10.9867 15.168 11.6693 15.168 12.48C15.168 13.632 15.8507 14.4853 17.216 15.04C18.5813 15.5947 20.7787 16.1707 23.808 16.768C27.3493 17.4933 30.2507 18.2613 32.512 19.072C34.816 19.84 36.8213 21.12 38.528 22.912C40.2347 24.704 41.1093 27.136 41.152 30.208C41.152 35.4133 39.3813 39.2747 35.84 41.792C32.3413 44.3093 27.648 45.568 21.76 45.568C14.8907 45.568 9.536 44.416 5.696 42.112C1.89867 39.808 0 35.7333 0 29.888H13.376C13.376 32.1067 13.952 33.6 15.104 34.368C16.256 35.0933 18.048 35.456 20.48 35.456C22.272 35.456 23.744 35.264 24.896 34.88C26.0907 34.496 26.688 33.7067 26.688 32.512C26.688 31.4453 26.0267 30.656 24.704 30.144C23.424 29.5893 21.312 29.0133 18.368 28.416C14.784 27.648 11.8187 26.8587 9.472 26.048C7.12533 25.1947 5.07733 23.808 3.328 21.888C1.57867 19.968 0.704 17.3653 0.704 14.08C0.704 9.25867 2.56 5.71733 6.272 3.456C10.0267 1.152 14.7627 0 20.48 0Z" fill="#F39200"/>
</svg>
